FFmpeg version SVN-r25716, Copyright (c) 2000-2010 the FFmpeg developers  built on Nov 10 2010 12:23:18 with gcc 4.1.2 20080704 (Red Hat 4.1.2-48)  configuration: --enable-libmp3lame --enable-shared --disable-mmx --arch=x86_64  libavutil     50.33. 0 / 50.33. 0  libavcore      0.12. 1 /  0.12. 1  libavcodec    52.94. 4 / 52.94. 4  libavformat   52.84. 0 / 52.84. 0  libavdevice   52. 2. 2 / 52. 2. 2  libavfilter    1.59. 0 /  1.59. 0  libswscale     0.12. 0 /  0.12. 0Seems stream 0 codec frame rate differs from container frame rate: 1200.00 (1200/1) -> 24.00 (24/1)Input #0, mov,mp4,m4a,3gp,3g2,mj2, from '/RAID10/data/converted_video_files/26317.mov':  Metadata:    major_brand     : qt      minor_version   : 0    compatible_brands: qt      encoder         : CoreMediaAuthoring 700, CoreMedia 484.20, i386    encoder-eng     : CoreMediaAuthoring 700, CoreMedia 484.20, i386  Duration: 00:00:32.64, start: 0.000000, bitrate: 1966 kb/s    Stream #0.0(eng): Video: h264, yuv420p, 512x512, 1963 kb/s, 24.02 fps, 24 tbr, 600 tbn, 1200 tbc[buffer @ 0x14f6d5d0] w:512 h:512 pixfmt:yuv420pOutput #0, flv, to '/RAID10/data/converted_video_files/26317.flv':  Metadata:    encoder         : Lavf52.84.0    Stream #0.0(eng): Video: flv, yuv420p, 512x512, q=2-31, 600 kb/s, 1k tbn, 24 tbcStream mapping:  Stream #0.0 -> #0.0Press [q] to stop encodingframe=   46 fps=  0 q=13.5 size=     385kB time=1.92 bitrate=1646.7kbits/s    frame=   92 fps= 89 q=15.1 size=     539kB time=3.83 bitrate=1152.5kbits/s    frame=  139 fps= 90 q=16.3 size=     693kB time=5.79 bitrate= 980.8kbits/s    frame=  187 fps= 91 q=16.5 size=     844kB time=7.79 bitrate= 887.2kbits/s    frame=  233 fps= 91 q=15.9 size=     989kB time=9.71 bitrate= 834.2kbits/s    frame=  281 fps= 92 q=15.1 size=    1138kB time=11.71 bitrate= 796.0kbits/s    frame=  328 fps= 92 q=14.1 size=    1290kB time=13.67 bitrate= 772.9kbits/s    frame=  378 fps= 93 q=15.6 size=    1446kB time=15.75 bitrate= 752.0kbits/s    frame=  428 fps= 94 q=16.9 size=    1598kB time=17.83 bitrate= 734.2kbits/s    frame=  485 fps= 92 q=17.8 size=    1745kB time=20.21 bitrate= 707.2kbits/s    frame=  524 fps= 94 q=15.7 size=    1839kB time=21.83 bitrate= 690.1kbits/s    frame=  581 fps= 96 q=14.6 size=    1998kB time=24.21 bitrate= 676.2kbits/s    frame=  639 fps= 97 q=14.9 size=    2165kB time=26.62 bitrate= 666.2kbits/s    frame=  697 fps= 98 q=16.1 size=    2344kB time=29.04 bitrate= 661.2kbits/s    frame=  756 fps=100 q=13.4 size=    2519kB time=31.50 bitrate= 655.1kbits/s    frame=  784 fps=100 q=15.6 Lsize=    2601kB time=32.67 bitrate= 652.3kbits/s    video:2589kB audio:0kB global headers:0kB muxing overhead 0.481103%